<svg width="60" height="51" viewBox="0 0 60 51" fill="none" xmlns="http://www.w3.org/2000/svg">
<path d="M32.8143 41H27.1867C26.8341 41.0001 26.4921 40.8832 26.2173 40.6687C25.9426 40.4543 25.7517 40.1552 25.6762 39.821L25.047 36.995C24.2076 36.6382 23.4116 36.1919 22.6738 35.6645L19.8337 36.542C19.4976 36.646 19.1348 36.6353 18.8058 36.5117C18.4767 36.3881 18.2012 36.159 18.0249 35.8625L15.2049 31.136C15.0304 30.8392 14.9649 30.4937 15.0191 30.1561C15.0733 29.8185 15.244 29.5087 15.5033 29.2775L17.7064 27.3275C17.6062 26.4442 17.6062 25.5528 17.7064 24.6695L15.5033 22.724C15.2436 22.4927 15.0727 22.1826 15.0185 21.8447C14.9643 21.5067 15.03 21.161 15.2049 20.864L18.0187 16.1345C18.195 15.838 18.4706 15.6089 18.7996 15.4853C19.1287 15.3617 19.4914 15.351 19.8275 15.455L22.6676 16.3325C23.0448 16.0625 23.4375 15.8105 23.8426 15.5825C24.2337 15.3695 24.6357 15.176 25.047 15.0035L25.6778 12.1805C25.7528 11.8463 25.9434 11.547 26.2179 11.3323C26.4923 11.1176 26.8341 11.0004 27.1867 11H32.8143C33.1668 11.0004 33.5087 11.1176 33.7831 11.3323C34.0575 11.547 34.2481 11.8463 34.3232 12.1805L34.9602 15.005C35.7985 15.3639 36.5942 15.81 37.3333 16.3355L40.175 15.458C40.5109 15.3544 40.8733 15.3653 41.202 15.4888C41.5307 15.6124 41.806 15.8413 41.9823 16.1375L44.7961 20.867C45.1547 21.4775 45.0311 22.25 44.4977 22.7255L42.2946 24.6755C42.3948 25.5588 42.3948 26.4502 42.2946 27.3335L44.4977 29.2835C45.0311 29.7605 45.1547 30.5315 44.7961 31.142L41.9823 35.8715C41.8059 36.168 41.5304 36.3971 41.2013 36.5207C40.8723 36.6443 40.5096 36.655 40.1734 36.551L37.3333 35.6735C36.5961 36.2005 35.8006 36.6463 34.9617 37.0025L34.3232 39.821C34.2478 40.1549 34.0571 40.4538 33.7827 40.6683C33.5083 40.8827 33.1666 40.9997 32.8143 41ZM29.9943 20C28.3542 20 26.7812 20.6321 25.6214 21.7574C24.4617 22.8826 23.8101 24.4087 23.8101 26C23.8101 27.5913 24.4617 29.1174 25.6214 30.2426C26.7812 31.3679 28.3542 32 29.9943 32C31.6344 32 33.2074 31.3679 34.3671 30.2426C35.5269 29.1174 36.1784 27.5913 36.1784 26C36.1784 24.4087 35.5269 22.8826 34.3671 21.7574C33.2074 20.6321 31.6344 20 29.9943 20Z" fill="white"/>
<rect x="0.5" y="0.5" width="59" height="50" stroke="white"/>
</svg>
