<svg width="60" height="51" viewBox="0 0 60 51" fill="none" xmlns="http://www.w3.org/2000/svg">
<path d="M30 11C21.7137 11 15 17.7137 15 26C15 34.2863 21.7137 41 30 41C38.2863 41 45 34.2863 45 26C45 17.7137 38.2863 11 30 11ZM30 16.8065C32.9395 16.8065 35.3226 19.1895 35.3226 22.129C35.3226 25.0685 32.9395 27.4516 30 27.4516C27.0605 27.4516 24.6774 25.0685 24.6774 22.129C24.6774 19.1895 27.0605 16.8065 30 16.8065ZM30 37.6129C26.4496 37.6129 23.2681 36.004 21.1391 33.4879C22.2762 31.3468 24.502 29.871 27.0968 29.871C27.2419 29.871 27.3871 29.8952 27.5262 29.9375C28.3125 30.1915 29.1351 30.3548 30 30.3548C30.8649 30.3548 31.6935 30.1915 32.4738 29.9375C32.6129 29.8952 32.7581 29.871 32.9032 29.871C35.498 29.871 37.7238 31.3468 38.8609 33.4879C36.7319 36.004 33.5504 37.6129 30 37.6129Z" fill="white"/>
<rect x="0.5" y="0.5" width="59" height="50" stroke="white"/>
</svg>

