{
  "accessors": [
    {
      "bufferView": 2,
      "componentType": 5126,
      "count": 22396,
      "max": [
        89.40997314453125,
        197.51260375976563,
        63.49311828613281
      ],
      "min": [
        -89.40997314453125,
        1.268951416015625,
        -135.17384338378906
      ],
      "type": "VEC3"
    },
    {
      "bufferView": 2,
      "byteOffset": 268752,
      "componentType": 5126,
      "count": 22396,
      "max": [
        0.9999815821647644,
        0.9999908804893494,
        0.9999695420265198
      ],
      "min": [
        -0.9999195337295532,
        -1.0,
        -0.9999658465385437
      ],
      "type": "VEC3"
    },
    {
      "bufferView": 1,
      "componentType": 5126,
      "count": 22396,
      "max": [
        0.990578293800354,
        0.9975000023841858
      ],
      "min": [
        0.0024999999441206455,
        0.0024999999441206455
      ],
      "type": "VEC2"
    },
    {
      "bufferView": 1,
      "byteOffset": 179168,
      "componentType": 5126,
      "count": 22396,
      "max": [
        0.990578293800354,
        0.9975000023841858
      ],
      "min": [
        0.0024999999441206455,
        0.0024999999441206455
      ],
      "type": "VEC2"
    },
    {
      "bufferView": 1,
      "byteOffset": 358336,
      "componentType": 5126,
      "count": 22396,
      "max": [
        0.990578293800354,
        0.9975000023841858
      ],
      "min": [
        0.0024999999441206455,
        0.0024999999441206455
      ],
      "type": "VEC2"
    },
    {
      "bufferView": 1,
      "byteOffset": 537504,
      "componentType": 5126,
      "count": 22396,
      "max": [
        0.990578293800354,
        0.9975000023841858
      ],
      "min": [
        0.0024999999441206455,
        0.0024999999441206455
      ],
      "type": "VEC2"
    },
    {
      "bufferView": 0,
      "componentType": 5125,
      "count": 122022,
      "type": "SCALAR"
    }
  ],
  "asset": {
    "extras": {
      "author": "LuAnton (https://sketchfab.com/LuAnton)",
      "license": "CC-BY-NC-SA-4.0 (http://creativecommons.org/licenses/by-nc-sa/4.0/)",
      "source": "https://sketchfab.com/3d-models/free-ugandan-tails-cd6dca09d7ed4838b6c0d71c5adc448c",
      "title": "[Free] Ugandan Tails"
    },
    "generator": "Sketchfab-12.66.0",
    "version": "2.0"
  },
  "bufferViews": [
    {
      "buffer": 0,
      "byteLength": 488088,
      "name": "floatBufferViews",
      "target": 34963
    },
    {
      "buffer": 0,
      "byteLength": 716672,
      "byteOffset": 488088,
      "byteStride": 8,
      "name": "floatBufferViews",
      "target": 34962
    },
    {
      "buffer": 0,
      "byteLength": 537504,
      "byteOffset": 1204760,
      "byteStride": 12,
      "name": "floatBufferViews",
      "target": 34962
    }
  ],
  "buffers": [
    {
      "byteLength": 1742264,
      "uri": "scene.bin"
    }
  ],
  "images": [
    {
      "uri": "textures/M_UTails_baseColor.png"
    },
    {
      "uri": "textures/M_UTails_metallicRoughness.png"
    }
  ],
  "materials": [
    {
      "name": "M_UTails",
      "occlusionTexture": {
        "index": 1
      },
      "pbrMetallicRoughness": {
        "baseColorTexture": {
          "index": 0
        },
        "metallicRoughnessTexture": {
          "index": 1
        },
        "roughnessFactor": 0.8929713596
      }
    }
  ],
  "meshes": [
    {
      "name": "UTails_M_UTails_0",
      "primitives": [
        {
          "attributes": {
            "NORMAL": 1,
            "POSITION": 0,
            "TEXCOORD_0": 2,
            "TEXCOORD_1": 3,
            "TEXCOORD_2": 4,
            "TEXCOORD_3": 5
          },
          "indices": 6,
          "material": 0,
          "mode": 4
        }
      ]
    }
  ],
  "nodes": [
    {
      "children": [
        1
      ],
      "matrix": [
        1.0,
        0.0,
        0.0,
        0.0,
        0.0,
        2.220446049250313e-16,
        -1.0,
        0.0,
        0.0,
        1.0,
        2.220446049250313e-16,
        0.0,
        0.0,
        0.0,
        0.0,
        1.0
      ],
      "name": "Sketchfab_model"
    },
    {
      "children": [
        2
      ],
      "matrix": [
        1.0,
        0.0,
        0.0,
        0.0,
        0.0,
        0.0,
        1.0,
        0.0,
        0.0,
        -1.0,
        0.0,
        0.0,
        0.0,
        0.0,
        0.0,
        1.0
      ],
      "name": "CH_UgandaTails_Sketchfab.fbx"
    },
    {
      "children": [
        3
      ],
      "name": "RootNode"
    },
    {
      "children": [
        4
      ],
      "matrix": [
        1.0,
        0.0,
        0.0,
        0.0,
        0.0,
        0.9999999999999867,
        1.6292068494294582e-07,
        0.0,
        0.0,
        -1.6292068494294582e-07,
        0.9999999999999867,
        0.0,
        0.0,
        0.0,
        0.0,
        1.0
      ],
      "name": "UTails"
    },
    {
      "mesh": 0,
      "name": "UTails_M_UTails_0"
    }
  ],
  "samplers": [
    {
      "magFilter": 9729,
      "minFilter": 9987,
      "wrapS": 10497,
      "wrapT": 10497
    }
  ],
  "scene": 0,
  "scenes": [
    {
      "name": "Sketchfab_Scene",
      "nodes": [
        0
      ]
    }
  ],
  "textures": [
    {
      "sampler": 0,
      "source": 0
    },
    {
      "sampler": 0,
      "source": 1
    }
  ]
}
