{
  "accessors": [
    {
      "bufferView": 2,
      "componentType": 5126,
      "count": 337,
      "max": [
        12.892399787902832,
        9.930800437927246,
        46.15299987792969
      ],
      "min": [
        -12.892399787902832,
        -9.832900047302246,
        0.867900013923645
      ],
      "type": "VEC3"
    },
    {
      "bufferView": 2,
      "byteOffset": 4044,
      "componentType": 5126,
      "count": 337,
      "max": [
        1.0,
        0.9999794960021973,
        0.9999794960021973
      ],
      "min": [
        -1.0,
        -0.9999794960021973,
        -0.7934689521789551
      ],
      "type": "VEC3"
    },
    {
      "bufferView": 1,
      "componentType": 5126,
      "count": 337,
      "max": [
        0.9955000281333923,
        0.9958999752998352
      ],
      "min": [
        -0.0013000000035390258,
        0.008799999952316284
      ],
      "type": "VEC2"
    },
    {
      "bufferView": 0,
      "componentType": 5125,
      "count": 1368,
      "type": "SCALAR"
    }
  ],
  "asset": {
    "extras": {
      "author": "Adrian.Alexis.Liberato (https://sketchfab.com/Adrian.Alexis.Liberato)",
      "license": "CC-BY-4.0 (http://creativecommons.org/licenses/by/4.0/)",
      "source": "https://sketchfab.com/3d-models/cat-box-meme-107d19cd699b45a5a7683aa4f9ce0d0d",
      "title": "Cat box meme"
    },
    "generator": "Sketchfab-14.64.0",
    "version": "2.0"
  },
  "bufferViews": [
    {
      "buffer": 0,
      "byteLength": 5472,
      "name": "floatBufferViews",
      "target": 34963
    },
    {
      "buffer": 0,
      "byteLength": 2696,
      "byteOffset": 5472,
      "byteStride": 8,
      "name": "floatBufferViews",
      "target": 34962
    },
    {
      "buffer": 0,
      "byteLength": 8088,
      "byteOffset": 8168,
      "byteStride": 12,
      "name": "floatBufferViews",
      "target": 34962
    }
  ],
  "buffers": [
    {
      "byteLength": 16256,
      "uri": "scene.bin"
    }
  ],
  "images": [
    {
      "uri": "textures/Material__27_baseColor.png"
    }
  ],
  "materials": [
    {
      "doubleSided": true,
      "name": "Material__27",
      "pbrMetallicRoughness": {
        "baseColorTexture": {
          "index": 0
        },
        "metallicFactor": 0.0,
        "roughnessFactor": 0.6
      }
    }
  ],
  "meshes": [
    {
      "name": "Object_0",
      "primitives": [
        {
          "attributes": {
            "NORMAL": 1,
            "POSITION": 0,
            "TEXCOORD_0": 2
          },
          "indices": 3,
          "material": 0,
          "mode": 4
        }
      ]
    }
  ],
  "nodes": [
    {
      "children": [
        1
      ],
      "matrix": [
        1.0,
        0.0,
        0.0,
        0.0,
        0.0,
        2.220446049250313e-16,
        -1.0,
        0.0,
        0.0,
        1.0,
        2.220446049250313e-16,
        0.0,
        0.0,
        0.0,
        0.0,
        1.0
      ],
      "name": "Sketchfab_model"
    },
    {
      "children": [
        2
      ],
      "name": "133a5f06fc554c4889f975109018a8ef.obj.cleaner.materialmerger.gles"
    },
    {
      "mesh": 0,
      "name": "Object_2"
    }
  ],
  "samplers": [
    {
      "magFilter": 9729,
      "minFilter": 9987,
      "wrapS": 10497,
      "wrapT": 10497
    }
  ],
  "scene": 0,
  "scenes": [
    {
      "name": "Sketchfab_Scene",
      "nodes": [
        0
      ]
    }
  ],
  "textures": [
    {
      "sampler": 0,
      "source": 0
    }
  ]
}
